<?xml version="1.0" encoding="UTF-8" standalone="no"?>
<!-- Created with Inkscape (http://www.inkscape.org/) -->

<svg
   version="1.1"
   id="svg1"
   width="343.82797"
   height="272.80341"
   viewBox="0 0 343.82797 272.80341"
   xmlns="http://www.w3.org/2000/svg"
   xmlns:svg="http://www.w3.org/2000/svg">
  <defs
     id="defs1" />
  <g
     id="g1">
    <path
       style="fill:#ffffff"
       d="M 27.671012,270.94741 C 9.1071919,264.0102 -1.3098593,247.56622 0.13239533,227.47596 0.80356473,218.12673 4.0365869,210.28428 10.722566,201.78704 l 3.873071,-4.9223 -4.574529,-5.99296 c -13.8801751,-18.18402 -12.5790075,-42.44324 3.118434,-58.14068 5.048563,-5.04856 17.075962,-11.97585 20.849985,-12.00873 0.822191,-0.007 1.900734,-3.07241 2.396762,-6.81165 0.496028,-3.73924 2.435539,-11.68924 4.310025,-17.666667 C 55.094312,50.331223 93.057557,15.10008 141.16131,3.0092399 c 17.22367,-4.3291573 46.40866,-3.93996823 64.63535,0.8619285 40.14938,10.5775156 73.41542,38.1888006 91.44088,75.8972046 5.22382,10.92799 10.59044,28.929597 10.59044,35.524227 0,3.01386 1.16481,3.99746 8.53763,7.20941 16.37907,7.1355 26.08186,20.56494 27.17599,37.61379 0.76444,11.91157 -1.68361,19.90621 -9.08319,29.66316 l -5.36154,7.06962 4.79887,5.85639 c 6.87216,8.38656 9.93224,17.3939 9.93224,29.23551 0,8.53759 -0.58732,11.00375 -4.3529,18.27788 -9.53945,18.42774 -31.16581,26.84571 -52.60889,20.4778 -8.73787,-2.59487 -19.15375,-11.88263 -23.60679,-21.05 -7.16989,-14.76047 -5.79206,-30.03932 3.99851,-44.33992 l 5.7494,-8.39786 -4.65335,-3.54928 c -6.14543,-4.68735 -13.05152,-15.3973 -16.36156,-25.37349 -2.07793,-6.26271 -5.38914,-31.26841 -5.484,-41.41428 -0.01,-1.03083 -2.09677,-0.93103 -6.97099,0.33333 -19.73114,5.11819 -43.09156,-1.90293 -59.44646,-17.867 l -7.17651,-7.00501 -8.45029,7.74315 c -17.32521,15.8754 -39.40217,22.21565 -59.34381,17.04286 -4.00883,-1.03988 -7.361323,-1.78988 -7.449993,-1.66667 -0.0887,0.12321 -0.84392,7.56514 -1.67833,16.53763 -2.42263,26.05066 -9.214494,42.91666 -20.858973,51.79834 l -4.621827,3.52524 4.019794,5.0754 c 7.506414,9.47762 9.962639,16.74686 9.896012,29.28741 -0.05081,9.56279 -0.605055,12.37483 -3.547769,18 -4.495307,8.59304 -11.994605,15.76791 -20.384618,19.50276 -8.263288,3.67844 -25.593202,4.77062 -32.823624,2.06864 z m 26.737973,-18.0418 c 7.436817,-3.56542 12.430567,-10.96198 13.134866,-19.4549 0.765091,-9.22599 -0.153426,-12.80551 -4.660333,-18.16167 -9.252107,-10.9955 -27.688028,-12.31314 -38.219765,-2.73161 -5.144826,4.68064 -7.502452,10.64881 -7.502452,18.99195 0,19.07981 19.124506,30.04498 37.247684,21.35623 z m 255.388935,2.31655 c 2.9168,-0.80976 7.50914,-3.67817 10.2052,-6.37423 15.88035,-15.88035 4.57563,-42.80525 -17.97227,-42.80525 -11.01472,0 -19.1036,4.65064 -23.67808,13.61355 -6.57662,12.88573 1.46635,32.28982 14.57797,35.17013 1.96015,0.4306 4.16391,0.98306 4.89724,1.22768 2.67681,0.89294 6.78573,0.60738 11.96994,-0.83188 z M 55.348407,185.9521 c 11.754861,-5.69043 20.298443,-20.12511 23.706554,-40.05305 0.452465,-2.64566 1.357664,-13.14566 2.011553,-23.33333 0.653889,-10.18767 1.606909,-19.57304 2.117824,-20.85638 1.442595,-3.623557 6.704379,-2.778227 13.101539,2.10484 20.634663,15.75079 52.889873,5.81643 68.523903,-21.104834 3.2193,-5.54353 4.51398,-6.666666 7.68486,-6.666666 3.17089,0 4.46556,1.123136 7.68486,6.666666 9.46015,16.290057 25.68287,27.173304 42.25274,28.345864 11.05562,0.78235 18.34834,-1.19341 26.02017,-7.04945 6.70245,-5.116087 10.63763,-5.837527 12.52612,-2.29642 0.68441,1.28334 1.66162,10.43334 2.17158,20.33334 0.50997,9.9 1.81818,22.46035 2.90714,27.9119 5.84666,29.2695 26.5083,45.3244 46.59218,36.20394 11.12289,-5.05111 16.74865,-18.34473 13.04344,-30.82152 -2.51343,-8.46365 -11.15879,-16.43314 -20.89822,-19.26448 -10.76256,-3.12875 -13.05302,-6.27846 -14.42761,-19.83999 C 288.25507,95.396183 277.98398,75.185782 259.87269,56.228908 234.60646,29.783047 202.26362,16.707028 166.49464,18.47672 c -18.21152,0.901026 -28.76983,3.398031 -43.79136,10.356511 -14.0031,6.486708 -26.487373,15.34909 -37.316235,26.490196 -18.792542,19.334408 -32.225743,46.632143 -32.225743,65.486233 0,8.56203 -3.306363,12.34107 -13.874387,15.85788 -17.975024,5.98171 -26.487892,21.68705 -20.074763,37.03583 2.76259,6.61181 5.605395,9.58527 11.949149,12.49833 7.168631,3.29185 17.082793,3.18954 24.187106,-0.2496 z m 68.162993,30.00339 c -10.2968,-5.58698 -10.12628,-23.84594 0.27293,-29.22358 8.64415,-4.47006 18.9795,-0.2789 22.56897,9.15212 5.20802,13.68359 -9.9946,27.04233 -22.8419,20.07146 z m 81.5076,0.0913 c -5.38458,-2.92668 -7.85769,-7.78115 -7.85769,-15.42388 0,-6.0089 0.55484,-7.40175 4.53333,-11.38024 3.62614,-3.62614 5.58785,-4.53334 9.80283,-4.53334 7.00929,0 13.69158,4.6125 16.18917,11.17469 5.16564,13.57227 -9.99019,27.05333 -22.66764,20.16277 z"
       id="path1" />
  </g>
</svg>
